<?xml version="1.0" encoding="UTF-8"?>
<svg id="Layer_1" width="24" height="24" viewBox="0 0 24 24" data-name="Layer 1" xmlns="http://www.w3.org/2000/svg" viewBox="0 0 24 24">
  <defs>
    <style>
      .cls-x {
        fill: #005697;
        stroke: #000;
        stroke-width: .5px;
      }
    </style>
  </defs>
  <path class="cls-x" d="M20.66,7c-.13-.24-.32-.43-.55-.57L12.77,2.19c-.48-.25-1.06-.25-1.54,0L3.89,6.43c-.46,.29-.74,.79-.77,1.33v8.48c0,.27,.08,.53,.22,.76,.13,.24,.32,.43,.55,.57l7.34,4.24c.48,.25,1.06,.25,1.54,0l7.34-4.24c.23-.14,.42-.33,.55-.57,.14-.23,.21-.49,.22-.76V7.76c0-.27-.08-.53-.22-.76Zm-8.66,10.92c-3.27-.01-5.91-2.68-5.89-5.95s2.68-5.91,5.95-5.89c2.09,0,4.02,1.12,5.08,2.92l-1.13,.71-.36,.2-1,.61c-.79-1.46-2.61-2-4.06-1.22-.99,.53-1.6,1.57-1.58,2.7,0,.52,.14,1.03,.4,1.48,.86,1.42,2.7,1.87,4.12,1.01,.41-.25,.76-.6,1.01-1.01l2.6,1.52c-1.07,1.81-3.02,2.93-5.13,2.92Z"/>
</svg>